<svg xmlns="http://www.w3.org/2000/svg" width="228.056" height="68.847" viewBox="0 0 228.056 68.847">
  <g id="code-4" transform="translate(-21.515 -143.073)">
    <rect id="Rectangle_115" data-name="Rectangle 115" width="43.029" height="4.303" rx="2.151" transform="translate(206.541 153.83)" fill="#dbc655"/>
    <rect id="Rectangle_116" data-name="Rectangle 116" width="57.014" height="4.303" rx="2.151" transform="translate(178.572 164.587)" fill="#f3f4fd"/>
    <rect id="Rectangle_117" data-name="Rectangle 117" width="43.029" height="4.303" rx="2.151" transform="translate(133.391 153.83)" fill="#89c275"/>
    <rect id="Rectangle_118" data-name="Rectangle 118" width="70.998" height="4.303" rx="2.151" transform="translate(32.272 153.83)" fill="#9d75b7"/>
    <rect id="Rectangle_119" data-name="Rectangle 119" width="15.06" height="4.303" rx="2.151" transform="translate(110.801 153.83)" fill="#4762db"/>
    <rect id="Rectangle_120" data-name="Rectangle 120" width="20.439" height="4.303" rx="2.151" transform="translate(21.515 143.073)" fill="#e3523b"/>
    <rect id="Rectangle_121" data-name="Rectangle 121" width="15.06" height="4.303" rx="2.151" transform="translate(183.951 153.83)" fill="#4762db"/>
    <rect id="Rectangle_122" data-name="Rectangle 122" width="20.439" height="4.303" rx="2.151" transform="translate(21.515 207.617)" fill="#e3523b"/>
    <rect id="Rectangle_123" data-name="Rectangle 123" width="101.119" height="4.303" rx="2.151" transform="translate(69.923 164.587)" fill="#f3f4fd"/>
    <rect id="Rectangle_124" data-name="Rectangle 124" width="20.439" height="4.303" rx="2.151" transform="translate(41.954 164.587)" fill="#f3f4fd"/>
    <rect id="Rectangle_126" data-name="Rectangle 126" width="57.014" height="4.303" rx="2.151" transform="translate(41.954 175.345)" fill="#f3f4fd"/>
    <rect id="Rectangle_127" data-name="Rectangle 127" width="101.119" height="4.303" rx="2.151" transform="translate(106.498 175.345)" fill="#f3f4fd"/>
    <rect id="Rectangle_128" data-name="Rectangle 128" width="20.439" height="4.303" rx="2.151" transform="translate(215.147 175.345)" fill="#f3f4fd"/>
    <rect id="Rectangle_129" data-name="Rectangle 129" width="44.105" height="4.303" rx="2.151" transform="translate(41.954 186.102)" fill="#f3f4fd"/>
    <rect id="Rectangle_130" data-name="Rectangle 130" width="70.998" height="4.303" rx="2.151" transform="translate(93.589 186.102)" fill="#f3f4fd"/>
    <rect id="Rectangle_131" data-name="Rectangle 131" width="20.439" height="4.303" rx="2.151" transform="translate(172.118 186.102)" fill="#f3f4fd"/>
    <rect id="Rectangle_132" data-name="Rectangle 132" width="57.014" height="4.303" rx="2.151" transform="translate(150.603 196.859)" fill="#f3f4fd"/>
    <rect id="Rectangle_133" data-name="Rectangle 133" width="101.119" height="4.303" rx="2.151" transform="translate(41.954 196.859)" fill="#f3f4fd"/>
    <rect id="Rectangle_134" data-name="Rectangle 134" width="20.439" height="4.303" rx="2.151" transform="translate(215.147 196.859)" fill="#f3f4fd"/>
    <rect id="Rectangle_135" data-name="Rectangle 135" width="35.499" height="4.303" rx="2.151" transform="translate(200.087 186.102)" fill="#f3f4fd"/>
  </g>
</svg>
