<svg xmlns="http://www.w3.org/2000/svg" width="239.889" height="47.332" viewBox="0 0 239.889 47.332">
  <g id="code-5" transform="translate(-10.757 -219.45)">
    <rect id="Rectangle_137" data-name="Rectangle 137" width="26.893" height="4.303" rx="2.151" transform="translate(10.757 219.45)" fill="#e3523b"/>
    <rect id="Rectangle_138" data-name="Rectangle 138" width="26.893" height="4.303" rx="2.151" transform="translate(10.757 262.479)" fill="#e3523b"/>
    <rect id="Rectangle_139" data-name="Rectangle 139" width="57.014" height="4.303" rx="2.151" transform="translate(193.632 240.965)" fill="#f3f4fd"/>
    <rect id="Rectangle_140" data-name="Rectangle 140" width="38.726" height="4.303" rx="2.151" transform="translate(101.119 230.207)" fill="#89c275"/>
    <rect id="Rectangle_141" data-name="Rectangle 141" width="49.484" height="4.303" rx="2.151" transform="translate(21.515 230.207)" fill="#9d75b7"/>
    <rect id="Rectangle_142" data-name="Rectangle 142" width="15.06" height="4.303" rx="2.151" transform="translate(78.529 230.207)" fill="#4762db"/>
    <rect id="Rectangle_143" data-name="Rectangle 143" width="15.06" height="4.303" rx="2.151" transform="translate(147.376 230.207)" fill="#4762db"/>
    <rect id="Rectangle_144" data-name="Rectangle 144" width="101.119" height="4.303" rx="2.151" transform="translate(84.983 240.965)" fill="#f3f4fd"/>
    <rect id="Rectangle_145" data-name="Rectangle 145" width="36.575" height="4.303" rx="2.151" transform="translate(41.954 240.965)" fill="#f3f4fd"/>
    <rect id="Rectangle_146" data-name="Rectangle 146" width="43.029" height="4.303" rx="2.151" transform="translate(169.966 230.207)" fill="#dbc655"/>
    <rect id="Rectangle_147" data-name="Rectangle 147" width="38.726" height="4.303" rx="2.151" transform="translate(83.907 251.722)" fill="#89c275"/>
    <rect id="Rectangle_148" data-name="Rectangle 148" width="32.272" height="4.303" rx="2.151" transform="translate(21.515 251.722)" fill="#9d75b7"/>
    <rect id="Rectangle_149" data-name="Rectangle 149" width="15.06" height="4.303" rx="2.151" transform="translate(61.317 251.722)" fill="#4762db"/>
    <rect id="Rectangle_150" data-name="Rectangle 150" width="15.06" height="4.303" rx="2.151" transform="translate(130.164 251.722)" fill="#4762db"/>
    <rect id="Rectangle_151" data-name="Rectangle 151" width="24.742" height="4.303" rx="2.151" transform="translate(152.754 251.722)" fill="#dbc655"/>
  </g>
</svg>
