<svg xmlns="http://www.w3.org/2000/svg" width="474.399" height="62.393" viewBox="0 0 474.399 62.393">
  <g id="code-2" transform="translate(-1471.315 -390.67)">
    <rect id="Rectangle_69" data-name="Rectangle 69" width="43.029" height="4.303" rx="2.151" transform="translate(1699.371 424.018)" fill="#dbc655"/>
    <rect id="Rectangle_71" data-name="Rectangle 71" width="57.014" height="4.303" rx="2.151" transform="translate(1767.142 401.427)" fill="#f3f4fd"/>
    <rect id="Rectangle_86" data-name="Rectangle 86" width="38.726" height="4.303" rx="2.151" transform="translate(1561.677 401.427)" fill="#89c275"/>
    <rect id="Rectangle_87" data-name="Rectangle 87" width="49.484" height="4.303" rx="2.151" transform="translate(1482.073 401.427)" fill="#9d75b7"/>
    <rect id="Rectangle_88" data-name="Rectangle 88" width="15.06" height="4.303" rx="2.151" transform="translate(1539.087 401.427)" fill="#4762db"/>
    <rect id="Rectangle_89" data-name="Rectangle 89" width="26.893" height="4.303" rx="2.151" transform="translate(1471.315 390.67)" fill="#e3523b"/>
    <rect id="Rectangle_90" data-name="Rectangle 90" width="15.06" height="4.303" rx="2.151" transform="translate(1607.934 401.427)" fill="#4762db"/>
    <rect id="Rectangle_91" data-name="Rectangle 91" width="26.893" height="4.303" rx="2.151" transform="translate(1471.315 448.759)" fill="#e3523b"/>
    <rect id="Rectangle_92" data-name="Rectangle 92" width="101.119" height="4.303" rx="2.151" transform="translate(1658.493 401.427)" fill="#f3f4fd"/>
    <rect id="Rectangle_93" data-name="Rectangle 93" width="20.439" height="4.303" rx="2.151" transform="translate(1630.524 401.427)" fill="#f3f4fd"/>
    <rect id="Rectangle_94" data-name="Rectangle 94" width="57.014" height="4.303" rx="2.151" transform="translate(1753.158 424.018)" fill="#f3f4fd"/>
    <rect id="Rectangle_95" data-name="Rectangle 95" width="83.907" height="4.303" rx="2.151" transform="translate(1583.192 424.018)" fill="#89c275"/>
    <rect id="Rectangle_96" data-name="Rectangle 96" width="49.484" height="4.303" rx="2.151" transform="translate(1503.588 424.018)" fill="#9d75b7"/>
    <rect id="Rectangle_97" data-name="Rectangle 97" width="15.06" height="4.303" rx="2.151" transform="translate(1560.601 424.018)" fill="#4762db"/>
    <rect id="Rectangle_98" data-name="Rectangle 98" width="20.439" height="4.303" rx="2.151" transform="translate(1492.83 413.26)" fill="#e3523b"/>
    <rect id="Rectangle_99" data-name="Rectangle 99" width="15.06" height="4.303" rx="2.151" transform="translate(1674.629 424.018)" fill="#4762db"/>
    <rect id="Rectangle_100" data-name="Rectangle 100" width="20.439" height="4.303" rx="2.151" transform="translate(1492.83 434.775)" fill="#e3523b"/>
    <rect id="Rectangle_101" data-name="Rectangle 101" width="101.119" height="4.303" rx="2.151" transform="translate(1817.702 424.018)" fill="#f3f4fd"/>
    <rect id="Rectangle_102" data-name="Rectangle 102" width="20.439" height="4.303" rx="2.151" transform="translate(1925.275 424.018)" fill="#f3f4fd"/>
  </g>
</svg>
