<svg id="maps" xmlns="http://www.w3.org/2000/svg" width="77.453" height="245.267" viewBox="0 0 77.453 245.267">
  <rect id="Rectangle_76" data-name="Rectangle 76" width="25.818" height="3.227" rx="1.614" fill="#bbbbbc"/>
  <g id="Group_136" data-name="Group 136" transform="translate(5.379 16.136)">
    <rect id="Rectangle_77" data-name="Rectangle 77" width="57.014" height="3.227" rx="1.614" transform="translate(0 10.757)" fill="#bbbbbc"/>
    <rect id="Rectangle_78" data-name="Rectangle 78" width="57.014" height="3.227" rx="1.614" transform="translate(0 21.515)" fill="#bbbbbc"/>
    <rect id="Rectangle_75" data-name="Rectangle 75" width="57.014" height="3.227" rx="1.614" fill="#bbbbbc"/>
    <rect id="Rectangle_79" data-name="Rectangle 79" width="57.014" height="3.227" rx="1.614" transform="translate(0 32.272)" fill="#bbbbbc"/>
  </g>
  <rect id="Rectangle_80" data-name="Rectangle 80" width="25.818" height="3.227" rx="1.614" transform="translate(10.757 64.544)" fill="#bbbbbc"/>
  <g id="Group_137" data-name="Group 137" transform="translate(20.439 80.68)">
    <rect id="Rectangle_77-2" data-name="Rectangle 77" width="57.014" height="3.227" rx="1.614" transform="translate(0 10.757)" fill="#bbbbbc"/>
    <rect id="Rectangle_78-2" data-name="Rectangle 78" width="57.014" height="3.227" rx="1.614" transform="translate(0 21.515)" fill="#bbbbbc"/>
    <rect id="Rectangle_75-2" data-name="Rectangle 75" width="57.014" height="3.227" rx="1.614" fill="#bbbbbc"/>
    <rect id="Rectangle_79-2" data-name="Rectangle 79" width="57.014" height="3.227" rx="1.614" transform="translate(0 32.272)" fill="#bbbbbc"/>
    <rect id="Rectangle_81" data-name="Rectangle 81" width="57.014" height="3.227" rx="1.614" transform="translate(0 43.029)" fill="#bbbbbc"/>
  </g>
  <rect id="Rectangle_82" data-name="Rectangle 82" width="25.818" height="3.227" rx="1.614" transform="translate(10.757 139.845)" fill="#bbbbbc"/>
  <g id="Group_138" data-name="Group 138" transform="translate(20.439 155.982)">
    <rect id="Rectangle_77-3" data-name="Rectangle 77" width="57.014" height="3.227" rx="1.614" transform="translate(0 10.757)" fill="#bbbbbc"/>
    <rect id="Rectangle_78-3" data-name="Rectangle 78" width="57.014" height="3.227" rx="1.614" transform="translate(0 21.515)" fill="#bbbbbc"/>
    <rect id="Rectangle_75-3" data-name="Rectangle 75" width="57.014" height="3.227" rx="1.614" fill="#bbbbbc"/>
    <rect id="Rectangle_79-3" data-name="Rectangle 79" width="57.014" height="3.227" rx="1.614" transform="translate(0 32.272)" fill="#bbbbbc"/>
    <rect id="Rectangle_81-2" data-name="Rectangle 81" width="57.014" height="3.227" rx="1.614" transform="translate(0 43.029)" fill="#bbbbbc"/>
  </g>
  <rect id="Rectangle_103" data-name="Rectangle 103" width="25.818" height="3.227" rx="1.614" transform="translate(5.379 215.147)" fill="#bbbbbc"/>
  <g id="Group_140" data-name="Group 140" transform="translate(10.757 231.283)">
    <rect id="Rectangle_104" data-name="Rectangle 104" width="57.014" height="3.227" rx="1.614" transform="translate(0)" fill="#bbbbbc"/>
    <rect id="Rectangle_105" data-name="Rectangle 105" width="57.014" height="3.227" rx="1.614" transform="translate(0 10.757)" fill="#bbbbbc"/>
  </g>
</svg>
