<svg xmlns="http://www.w3.org/2000/svg" width="229.346" height="123" viewBox="0 0 229.346 123">
  <g id="book" transform="translate(-795.488 -583.994)">
    <circle id="Ellipse_182" data-name="Ellipse 182" cx="61.5" cy="61.5" r="61.5" transform="translate(795.488 583.994)" fill="#ffa97b" opacity="0.59"/>
    <g id="Group_210" data-name="Group 210" transform="translate(813.143 595.943)">
      <g id="Group_187" data-name="Group 187" transform="translate(0)">
        <g id="Group_173" data-name="Group 173">
          <path id="Path_350" data-name="Path 350" d="M618.346,5269.859l.255-66.438s-4.9-11.008-20.324-12.635-38.983-2.307-38.983-2.307l-23.043,62.035s23.072-6.688,43.659-2S618.346,5269.859,618.346,5269.859Z" transform="translate(-513.65 -5188.479)" fill="none" stroke="#fff" stroke-width="2"/>
          <path id="Path_351" data-name="Path 351" d="M557.754,5196.862H549.6l-23.788,61.4s29.006-6.168,40.029-6.518,15.605,1.134,24.83,4.351c14.169,4.941,28.105,14.229,28.105,14.229" transform="translate(-516.188 -5186.441)" fill="none" stroke="#fff" stroke-width="2"/>
          <path id="Path_352" data-name="Path 352" d="M555.806,5197.02h2.922l-8.287-.157-21.255,62s27.281-6.893,52.394-6.191,47.23,12.238,47.23,12.238" transform="translate(-528.618 -5178.982)" fill="none" stroke="#fff" stroke-width="2"/>
          <path id="Path_353" data-name="Path 353" d="M519.766,5251.327c-.156.453-.68,1.922-.68,1.922v8.283s22.8-6.623,47.777-6.6S615.3,5265.61,615.3,5265.61a30.336,30.336,0,0,1,3.951-8.137,6.893,6.893,0,0,1,5.529-2.538" transform="translate(-519.085 -5171.712)" fill="rgba(255,255,255,0)" stroke="#fff" stroke-width="2"/>
        </g>
      </g>
      <g id="Group_211" data-name="Group 211" transform="translate(105)">
        <g id="Group_173-2" data-name="Group 173">
          <path id="Path_350-2" data-name="Path 350" d="M536.507,5269.859l-.255-66.438s4.9-11.008,20.324-12.635,38.983-2.307,38.983-2.307l23.043,62.035s-23.072-6.688-43.659-2S536.507,5269.859,536.507,5269.859Z" transform="translate(-535.511 -5188.479)" fill="none" stroke="#fff" stroke-width="2"/>
          <path id="Path_351-2" data-name="Path 351" d="M586.83,5196.862h8.156l23.788,61.4s-29.006-6.168-40.029-6.518-15.605,1.134-24.83,4.351c-14.169,4.941-28.105,14.229-28.105,14.229" transform="translate(-522.705 -5186.441)" fill="none" stroke="#fff" stroke-width="2"/>
          <path id="Path_352-2" data-name="Path 352" d="M602.188,5197.02h-2.922l8.287-.157,21.255,62s-27.281-6.893-52.394-6.191-47.23,12.238-47.23,12.238" transform="translate(-523.684 -5178.982)" fill="none" stroke="#fff" stroke-width="2"/>
          <path id="Path_353-2" data-name="Path 353" d="M624.1,5251.327c.156.453.68,1.922.68,1.922v8.283s-22.8-6.623-47.777-6.6-48.434,10.674-48.434,10.674a30.336,30.336,0,0,0-3.951-8.137,6.893,6.893,0,0,0-5.529-2.538" transform="translate(-519.085 -5171.712)" fill="rgba(255,255,255,0)" stroke="#fff" stroke-width="2"/>
        </g>
      </g>
    </g>
  </g>
</svg>
