<svg xmlns="http://www.w3.org/2000/svg" width="210.821" height="123" viewBox="0 0 210.821 123">
  <g id="computer" transform="translate(-1304.783 -578.237)">
    <circle id="Ellipse_184" data-name="Ellipse 184" cx="61.5" cy="61.5" r="61.5" transform="translate(1304.783 578.237)" fill="#ffa97b" opacity="0.59"/>
    <g id="Group_185" data-name="Group 185" transform="translate(1323.491 595.943)">
      <g id="Group_156" data-name="Group 156">
        <g id="Rectangle_170" data-name="Rectangle 170" transform="translate(11.459)" fill="none" stroke="#f5f5f5" stroke-width="2">
          <rect width="169.194" height="96.59" rx="7" stroke="none"/>
          <rect x="1" y="1" width="167.194" height="94.59" rx="6" fill="none"/>
        </g>
        <g id="Path_355" data-name="Path 355" transform="translate(18.2 6.818)" fill="none">
          <path d="M2,0H153.039a1.951,1.951,0,0,1,2,1.9V82.76a1.951,1.951,0,0,1-2,1.9H2a1.951,1.951,0,0,1-2-1.9V1.9A1.951,1.951,0,0,1,2,0Z" stroke="none"/>
          <path d="M 2 0.9999923706054688 C 1.4486083984375 0.9999923706054688 1 1.4029541015625 1 1.89825439453125 L 1 82.75981140136719 C 1 83.25511169433594 1.4486083984375 83.65807342529297 2 83.65807342529297 L 153.0386047363281 83.65807342529297 C 153.5899963378906 83.65807342529297 154.0386047363281 83.25511169433594 154.0386047363281 82.75981140136719 L 154.0386047363281 1.89825439453125 C 154.0386047363281 1.4029541015625 153.5899963378906 0.9999923706054688 153.0386047363281 0.9999923706054688 L 2 0.9999923706054688 M 2 -7.62939453125e-06 L 153.0386047363281 -7.62939453125e-06 C 154.1431579589844 -7.62939453125e-06 155.0386047363281 0.8498764038085938 155.0386047363281 1.89825439453125 L 155.0386047363281 82.75981140136719 C 155.0386047363281 83.80818939208984 154.1431579589844 84.65807342529297 153.0386047363281 84.65807342529297 L 2 84.65807342529297 C 0.895416259765625 84.65807342529297 0 83.80818939208984 0 82.75981140136719 L 0 1.89825439453125 C 0 0.8498764038085938 0.895416259765625 -7.62939453125e-06 2 -7.62939453125e-06 Z" stroke="none" fill="#f5f5f5"/>
        </g>
        <g id="Path_354" data-name="Path 354" transform="translate(0 94.885)" fill="none">
          <path d="M0,0H192.113V2.066a7.8,7.8,0,0,1-8,7.593H8A7.8,7.8,0,0,1,0,2.066Z" stroke="none"/>
          <path d="M 2 1.99998664855957 L 2 2.06596040725708 C 2 5.149960517883301 4.69158935546875 7.658960342407227 8 7.658960342407227 L 184.1130676269531 7.658960342407227 C 187.4214782714844 7.658960342407227 190.1130676269531 5.149960517883301 190.1130676269531 2.06596040725708 L 190.1130676269531 1.99998664855957 L 2 1.99998664855957 M 0 -1.33514404296875e-05 L 192.1130676269531 -1.33514404296875e-05 L 192.1130676269531 2.06596040725708 C 192.1130676269531 6.25946044921875 188.5313568115234 9.658960342407227 184.1130676269531 9.658960342407227 L 8 9.658960342407227 C 3.581710815429688 9.658960342407227 0 6.25946044921875 0 2.06596040725708 L 0 -1.33514404296875e-05 Z" stroke="none" fill="#f5f5f5"/>
        </g>
        <g id="Path_356" data-name="Path 356" transform="translate(82.912 95.453)" fill="none">
          <path d="M0,0H25.615a5.256,5.256,0,0,1-5.388,5.114H5.388A5.256,5.256,0,0,1,0,0Z" stroke="none"/>
          <path d="M 1.131093978881836 0.9999971389770508 C 1.608726501464844 2.78664755821228 3.335987091064453 4.113577365875244 5.387657165527344 4.113577365875244 L 20.2274169921875 4.113577365875244 C 22.27908897399902 4.113577365875244 24.00634956359863 2.78664755821228 24.48398208618164 0.9999971389770508 L 1.131093978881836 0.9999971389770508 M -1.9073486328125e-06 -2.86102294921875e-06 L 25.61507797241211 -2.86102294921875e-06 C 25.61507797241211 2.82414722442627 23.20293807983398 5.113577365875244 20.2274169921875 5.113577365875244 L 5.387657165527344 5.113577365875244 C 2.412137985229492 5.113577365875244 -1.9073486328125e-06 2.82414722442627 -1.9073486328125e-06 -2.86102294921875e-06 Z" stroke="none" fill="#f5f5f5"/>
        </g>
      </g>
    </g>
  </g>
</svg>
