<svg xmlns="http://www.w3.org/2000/svg" width="223.713" height="130.332" viewBox="0 0 223.713 130.332">
  <g id="pen" transform="translate(-292.072 -579.668)">
    <circle id="Ellipse_183" data-name="Ellipse 183" cx="61.5" cy="61.5" r="61.5" transform="translate(292.072 587)" fill="#ffa97b" opacity="0.58"/>
    <g id="Group_186" data-name="Group 186" transform="translate(315.605 572.481)">
      <g id="Group_158" data-name="Group 158" transform="matrix(0.809, 0.588, -0.588, 0.809, 68.897, 0)">
        <g id="Path_331" data-name="Path 331" transform="matrix(0.966, -0.259, 0.259, 0.966, 0, 8.883)" fill="none">
          <path d="M23.435,4.833s1.821-6.089,7.132-4.6S34,8.5,34,8.5,11.42,97.72,10.427,100.8s-8.06,9.474-8.06,9.474S.1,101.6,0,97.828,23.435,4.833,23.435,4.833Z" stroke="none"/>
          <path d="M 28.95057678222656 2 C 28.58388328552246 2 27.4680061340332 2 26.34428405761719 3.510429382324219 C 25.71909713745117 4.350753784179688 25.40821075439453 5.235809326171875 25.35630798339844 5.3916015625 C 25.04626274108887 6.567337036132812 19.37534713745117 28.07939147949219 13.74725341796875 49.90410995483398 C 3.346302032470703 90.23709106445312 2.060226440429688 96.85723114013672 2.000625610351562 97.80809783935547 C 2.062931060791016 99.79098510742188 2.818580627441406 103.50830078125 3.489032745361328 106.4256820678711 C 3.838499069213867 106.0753479003906 4.205802917480469 105.7002334594727 4.577484130859375 105.3103408813477 C 7.793760299682617 101.9364013671875 8.411298751831055 100.534309387207 8.523960113525391 100.1849517822266 C 9.293790817260742 97.79767608642578 24.25437545776367 38.84860229492188 32.05749893188477 8.011726379394531 L 32.06837844848633 7.970466613769531 C 32.09035110473633 7.886238098144531 32.44367599487305 6.497146606445312 32.27477645874023 5.048583984375 C 32.03371429443359 2.981338500976562 30.94651412963867 2.419448852539062 30.02629852294922 2.160896301269531 C 29.64628219604492 2.05413818359375 29.28436088562012 2 28.95057678222656 2 M 28.95057106018066 0 C 29.44945526123047 0 29.9873046875 0.07250213623046875 30.56725311279297 0.235443115234375 C 35.8785285949707 1.727737426757812 33.99639129638672 8.502357482910156 33.99639129638672 8.502357482910156 C 33.99639129638672 8.502357482910156 11.42036056518555 97.71969604492188 10.42743682861328 100.7987670898438 C 9.434514999389648 103.8778610229492 2.367469787597656 110.2725524902344 2.367469787597656 110.2725524902344 C 2.367469787597656 110.2725524902344 0.1041908264160156 101.6009063720703 0.00034332275390625 97.82804870605469 C -0.1035003662109375 94.05516815185547 23.43537521362305 4.832511901855469 23.43537521362305 4.832511901855469 C 23.43537521362305 4.832511901855469 24.88057327270508 0 28.95057106018066 0 Z" stroke="none" fill="#f2f2f2"/>
        </g>
        <path id="Path_333" data-name="Path 333" d="M0,0,.063,4.184" transform="translate(30.683 113.031)" fill="none" stroke="#f2f2f2" stroke-linecap="round" stroke-width="3"/>
        <path id="Path_332" data-name="Path 332" d="M0,0,14,4.2l-4.8,19" transform="matrix(0.966, -0.259, 0.259, 0.966, 24.83, 23.145)" fill="none" stroke="#f2f2f2" stroke-linecap="round" stroke-width="3"/>
      </g>
      <path id="Path_360" data-name="Path 360" d="M-89.325,5400.237s-6.869,15.029,12.857,14.762,43.309-55.49,55.49-42.632-14.214,51.814,6.09,39.249,11.5-51.43,64.964-60.227c32.236-5.3-12.181,33.8-2.707,46.016s40.6,2.832,40.6,2.832" transform="translate(110.962 -5280.491)" fill="none" stroke="#fff" stroke-linecap="round" stroke-width="2"/>
    </g>
  </g>
</svg>
