<svg id="pink-computer" xmlns="http://www.w3.org/2000/svg" width="189.145" height="110.354" viewBox="0 0 189.145 110.354">
  <circle id="Ellipse_184" data-name="Ellipse 184" cx="55.177" cy="55.177" r="55.177" fill="#ee92ad" opacity="0.35"/>
  <g id="Group_185" data-name="Group 185" transform="translate(16.784 15.886)">
    <g id="Group_156" data-name="Group 156">
      <g id="Rectangle_170" data-name="Rectangle 170" transform="translate(10.281)" fill="none" stroke="#f5f5f5" stroke-width="2">
        <rect width="151.798" height="86.658" rx="7" stroke="none"/>
        <rect x="1" y="1" width="149.798" height="84.658" rx="6" fill="none"/>
      </g>
      <g id="Path_355" data-name="Path 355" transform="translate(16.329 6.117)" fill="none">
        <path d="M1.794,0H137.3A1.751,1.751,0,0,1,139.1,1.7V74.25a1.751,1.751,0,0,1-1.794,1.7H1.794A1.751,1.751,0,0,1,0,74.25V1.7A1.751,1.751,0,0,1,1.794,0Z" stroke="none"/>
        <path d="M 1.794342041015625 1 C 1.356353759765625 1 1 1.315399169921875 1 1.703071594238281 L 1 74.25045013427734 C 1 74.63812255859375 1.356353759765625 74.95352172851562 1.794342041015625 74.95352172851562 L 137.3031616210938 74.95352172851562 C 137.7411804199219 74.95352172851562 138.0975341796875 74.63812255859375 138.0975341796875 74.25045013427734 L 138.0975341796875 1.703071594238281 C 138.0975341796875 1.315399169921875 137.7411804199219 1 137.3031616210938 1 L 1.794342041015625 1 M 1.794342041015625 0 L 137.3031616210938 0 C 138.2941741943359 0 139.0975341796875 0.7624893188476562 139.0975341796875 1.703071594238281 L 139.0975341796875 74.25045013427734 C 139.0975341796875 75.19103240966797 138.2941741943359 75.95352172851562 137.3031616210938 75.95352172851562 L 1.794342041015625 75.95352172851562 C 0.8033447265625 75.95352172851562 0 75.19103240966797 0 74.25045013427734 L 0 1.703071594238281 C 0 0.7624893188476562 0.8033447265625 0 1.794342041015625 0 Z" stroke="none" fill="#f5f5f5"/>
      </g>
      <g id="Path_354" data-name="Path 354" transform="translate(0 85.129)" fill="none">
        <path d="M0,0H172.36V1.854a7,7,0,0,1-7.177,6.812H7.177A7,7,0,0,1,0,1.854Z" stroke="none"/>
        <path d="M 2.002365112304688 2.000010013580322 C 2.086074829101562 4.58591890335083 4.375381469726562 6.665828227996826 7.17742919921875 6.665828227996826 L 165.1825714111328 6.665828227996826 C 167.984619140625 6.665828227996826 170.27392578125 4.58591890335083 170.3576354980469 2.000010013580322 L 2.002365112304688 2.000010013580322 M 0 1.049041748046875e-05 L 172.3600006103516 1.049041748046875e-05 L 172.3600006103516 1.853532791137695 C 172.3600006103516 5.615873336791992 169.1465454101562 8.665827751159668 165.1825714111328 8.665827751159668 L 7.17742919921875 8.665827751159668 C 3.213455200195312 8.665827751159668 0 5.615873336791992 0 1.853532791137695 L 0 1.049041748046875e-05 Z" stroke="none" fill="#f5f5f5"/>
      </g>
      <g id="Path_356" data-name="Path 356" transform="translate(74.387 85.639)" fill="none">
        <path d="M0,0H22.981a4.716,4.716,0,0,1-4.834,4.588H4.834A4.716,4.716,0,0,1,0,0Z" stroke="none"/>
        <path d="M 1.151493072509766 0.9999983310699463 C 1.615259170532227 2.49328088760376 3.090469360351562 3.587798357009888 4.833696365356445 3.587798357009888 L 18.14763641357422 3.587798357009888 C 19.8908634185791 3.587798357009888 21.36607360839844 2.49328088760376 21.8298397064209 0.9999983310699463 L 1.151493072509766 0.9999983310699463 M -3.814697265625e-06 -1.430511474609375e-06 L 22.98133659362793 -1.430511474609375e-06 C 22.98133659362793 2.53376841545105 20.81721687316895 4.587798118591309 18.14763641357422 4.587798118591309 L 4.833696365356445 4.587798118591309 C 2.164115905761719 4.587798118591309 -3.814697265625e-06 2.53376841545105 -3.814697265625e-06 -1.430511474609375e-06 Z" stroke="none" fill="#f5f5f5"/>
      </g>
    </g>
  </g>
</svg>
