<svg xmlns="http://www.w3.org/2000/svg" width="200.839" height="116.932" viewBox="0 0 200.839 116.932">
  <g id="pink-pen" transform="translate(0 -6.447)">
    <circle id="Ellipse_183" data-name="Ellipse 183" cx="55.177" cy="55.177" r="55.177" transform="translate(0 13.026)" fill="#ee92ad" opacity="0.35"/>
    <g id="Group_186" data-name="Group 186" transform="translate(21.114 0)">
      <g id="Group_158" data-name="Group 158" transform="matrix(0.809, 0.588, -0.588, 0.809, 61.813, 0)">
        <g id="Path_331" data-name="Path 331" transform="matrix(0.966, -0.259, 0.259, 0.966, 0, 7.969)" fill="none">
          <path d="M21.026,4.336s1.633-5.463,6.4-4.124S30.5,7.628,30.5,7.628,10.246,87.672,9.355,90.435s-7.231,8.5-7.231,8.5S.093,91.154,0,87.769,21.026,4.336,21.026,4.336Z" stroke="none"/>
          <path d="M 25.97386360168457 2.000007629394531 C 25.6713924407959 2.000007629394531 24.75094985961914 2.000007629394531 23.80652046203613 3.264236450195312 C 23.26657104492188 3.98699951171875 22.99460220336914 4.752433776855469 22.94631958007812 4.896087646484375 C 22.65020751953125 6.01904296875 17.58380126953125 25.23873138427734 12.55010604858398 44.75750350952148 C 3.250350952148438 80.81851196289062 2.066368103027344 86.85887908935547 2.000820159912109 87.75646209716797 C 2.055992126464844 89.44261169433594 2.671510696411133 92.53272247314453 3.247434616088867 95.07288360595703 C 3.479148864746094 94.83794403076172 3.717594146728516 94.59258270263672 3.957963943481445 94.34043121337891 C 6.813449859619141 91.34499359130859 7.354106903076172 90.12376403808594 7.451807022094727 89.82083129882812 C 8.140878677368164 87.68397521972656 21.56173515319824 34.80153274536133 28.56199264526367 7.137519836425781 L 28.57264709472656 7.097015380859375 C 28.59337615966797 7.01708984375 28.89983367919922 5.802459716796875 28.75097846984863 4.544364929199219 C 28.54670715332031 2.818061828613281 27.64559173583984 2.350845336914062 26.88336372375488 2.136688232421875 C 26.5605354309082 2.045989990234375 26.25453567504883 2.000007629394531 25.97386360168457 2.000007629394531 M 25.97386932373047 7.62939453125e-06 C 26.42145919799805 7.62939453125e-06 26.90401649475098 0.06505584716796875 27.42433547973633 0.2112503051757812 C 32.18950653076172 1.550094604492188 30.50087738037109 7.628150939941406 30.50087738037109 7.628150939941406 C 30.50087738037109 7.628150939941406 10.24610710144043 87.67216491699219 9.355278015136719 90.43464660644531 C 8.464448928833008 93.19713592529297 2.124034881591797 98.93433380126953 2.124034881591797 98.93433380126953 C 2.124034881591797 98.93433380126953 0.09347915649414062 91.15430450439453 0.00030517578125 87.76936340332031 C -0.092864990234375 84.38442230224609 21.02574920654297 4.33563232421875 21.02574920654297 4.33563232421875 C 21.02574920654297 4.33563232421875 22.32234764099121 7.62939453125e-06 25.97386932373047 7.62939453125e-06 Z" stroke="none" fill="#f2f2f2"/>
        </g>
        <path id="Path_333" data-name="Path 333" d="M0,0,.056,3.754" transform="translate(27.528 101.409)" fill="none" stroke="#f2f2f2" stroke-linecap="round" stroke-width="3"/>
        <path id="Path_332" data-name="Path 332" d="M0,0,12.562,3.77,8.252,20.821" transform="matrix(0.966, -0.259, 0.259, 0.966, 22.277, 20.765)" fill="none" stroke="#f2f2f2" stroke-linecap="round" stroke-width="3"/>
      </g>
      <path id="Path_360" data-name="Path 360" d="M-89.444,5395.165s-6.162,13.484,11.535,13.244,38.856-49.784,49.784-38.249-12.753,46.487,5.464,35.213,10.321-46.143,58.284-54.035c28.922-4.759-10.928,30.329-2.429,41.285s36.428,2.541,36.428,2.541" transform="translate(108.856 -5287.73)" fill="none" stroke="#fff" stroke-linecap="round" stroke-width="2"/>
    </g>
  </g>
</svg>
