<svg id="pink-book" xmlns="http://www.w3.org/2000/svg" width="205.904" height="110.354" viewBox="0 0 205.904 110.354">
  <circle id="Ellipse_182" data-name="Ellipse 182" cx="55.177" cy="55.177" r="55.177" fill="#ee92ad" opacity="0.35"/>
  <g id="Group_210" data-name="Group 210" transform="translate(15.839 10.721)">
    <g id="Group_187" data-name="Group 187" transform="translate(0)">
      <g id="Group_173" data-name="Group 173">
        <path id="Path_350" data-name="Path 350" d="M609.905,5261.492l.229-59.608s-4.4-9.876-18.235-11.335-34.975-2.069-34.975-2.069l-20.674,55.657s20.7-6,39.17-1.792S609.905,5261.492,609.905,5261.492Z" transform="translate(-515.974 -5188.479)" fill="none" stroke="#fff" stroke-width="2"/>
        <path id="Path_351" data-name="Path 351" d="M554.47,5196.862h-7.317l-21.342,55.084s26.024-5.534,35.913-5.848,14,1.018,22.277,3.9c12.712,4.433,25.216,12.766,25.216,12.766" transform="translate(-517.177 -5187.512)" fill="none" stroke="#fff" stroke-width="2"/>
        <path id="Path_352" data-name="Path 352" d="M553.069,5197h2.621l-7.435-.141-19.07,55.627s24.476-6.185,47.007-5.555,42.374,10.979,42.374,10.979" transform="translate(-528.677 -5180.821)" fill="none" stroke="#fff" stroke-width="2"/>
        <path id="Path_353" data-name="Path 353" d="M519.7,5251.327c-.14.406-.61,1.724-.61,1.724v7.433a172.979,172.979,0,0,1,42.865-5.918c22.41.024,43.454,9.577,43.454,9.577a27.219,27.219,0,0,1,3.545-7.3,6.182,6.182,0,0,1,4.961-2.276" transform="translate(-519.085 -5179.899)" fill="none" stroke="#fff" stroke-width="2"/>
      </g>
    </g>
    <g id="Group_211" data-name="Group 211" transform="translate(94.204)">
      <g id="Group_173-2" data-name="Group 173">
        <path id="Path_350-2" data-name="Path 350" d="M536.48,5261.492l-.229-59.608s4.4-9.876,18.234-11.335,34.975-2.069,34.975-2.069l20.674,55.657s-20.7-6-39.17-1.792S536.48,5261.492,536.48,5261.492Z" transform="translate(-535.587 -5188.479)" fill="none" stroke="#fff" stroke-width="2"/>
        <path id="Path_351-2" data-name="Path 351" d="M580.556,5196.862h7.317l21.342,55.084s-26.024-5.534-35.913-5.848-14,1.018-22.277,3.9c-12.712,4.433-25.216,12.766-25.216,12.766" transform="translate(-523.024 -5187.512)" fill="none" stroke="#fff" stroke-width="2"/>
        <path id="Path_352-2" data-name="Path 352" d="M594.682,5197h-2.621l7.435-.141,19.07,55.627s-24.476-6.185-47.007-5.555-42.374,10.979-42.374,10.979" transform="translate(-524.25 -5180.821)" fill="none" stroke="#fff" stroke-width="2"/>
        <path id="Path_353-2" data-name="Path 353" d="M613.3,5251.327c.14.406.61,1.724.61,1.724v7.433a172.979,172.979,0,0,0-42.865-5.918c-22.41.024-43.454,9.577-43.454,9.577a27.221,27.221,0,0,0-3.545-7.3,6.182,6.182,0,0,0-4.961-2.276" transform="translate(-519.085 -5179.899)" fill="none" stroke="#fff" stroke-width="2"/>
      </g>
    </g>
  </g>
</svg>
