<svg xmlns="http://www.w3.org/2000/svg" width="295" height="244.002" viewBox="0 0 295 244.002">
  <g id="Group_165" data-name="Group 165" transform="translate(-156 -430)">
    <path id="Subtraction_2" data-name="Subtraction 2" d="M-2991-5360h-295v-244h295v244Zm-122.537-93.082,32.082,60.763,9.67,18.317h69.415l-80.028-144.841-7.813,13.514-60.6,102c-7.708,13.037-16.488,29.167-16.576,29.328h7.34l10.555-18.518,35.949-60.562Zm38.793-137.937L-3203.559-5374h8.344l128.247-217.013h-7.776Zm-192.507,117.271a3.375,3.375,0,0,0-2.451,1.051,3.263,3.263,0,0,0-1.052,2.352c0,1.5.985,3.305,2.928,5.381a54.519,54.519,0,0,0,8.784,7.131c11.091,7.572,24.124,11.411,38.737,11.411,15.875,0,29.515-3.334,40.54-9.91a39.042,39.042,0,0,0,13.613-13.312,32.878,32.878,0,0,0,4.906-17.217c0-7.107-2.324-14.584-6.907-22.221-4.385-7.242-16.513-21.451-36.045-42.233-6.183-6.512-10.627-11.8-13.209-15.715s-3.9-7.291-3.9-10.015a6.518,6.518,0,0,1,3.153-5.558,14.259,14.259,0,0,1,8.159-2.152,47.7,47.7,0,0,1,16.917,3.353,42.6,42.6,0,0,1,14.213,8.458c2.192,2.059,3.876,3.1,5.006,3.1a3.216,3.216,0,0,0,2.152-.951,2.773,2.773,0,0,0,1.051-2.052c0-1.527-1.263-3.447-3.754-5.705a39.807,39.807,0,0,0-8.958-6.006,68.83,68.83,0,0,0-30.331-6.706c-15.675,0-29.045,3.873-39.738,11.51-10.893,7.772-16.416,17.91-16.416,30.13,0,8.1,2.9,16.759,8.609,25.725,4.32,6.776,13.078,17.316,26.03,31.327,10.3,11.1,16.9,18.625,19.617,22.372s4.1,7.172,4.1,10.163a5.857,5.857,0,0,1-2.927,5.331c-1.942,1.179-4.9,1.777-8.784,1.777a47.553,47.553,0,0,1-10.672-1.238,57.042,57.042,0,0,1-10.8-3.716,59.9,59.9,0,0,1-10.022-5.768,53.743,53.743,0,0,1-8.345-7.4C-3264.639-5472.837-3266.053-5473.747-3267.25-5473.747Z" transform="translate(3442 6034)" fill="#fff"/>
  </g>
</svg>
