<svg xmlns="http://www.w3.org/2000/svg" width="1652.926" height="251.188" viewBox="0 0 1652.926 251.188">
  <g id="desk-group" transform="translate(-133.537 -57.771)">
    <g id="Group_160" data-name="Group 160" transform="translate(0 4)">
      <g id="Subtraction_23" data-name="Subtraction 23" transform="translate(8450 1929.771)" fill="none">
        <path d="M-7493-1676.054h-290v-17h290v17l0,0Zm-306.058-83.717h-10V-1871a5.005,5.005,0,0,1,5-5h343.478a5.005,5.005,0,0,1,5,5v62.231h-10V-1865.5a.5.5,0,0,0-.5-.5h-332.475a.5.5,0,0,0-.5.5Z" stroke="none"/>
        <path d="M -7496.00048828125 -1679.053833007813 L -7496.00048828125 -1690.05322265625 L -7780.0009765625 -1690.05322265625 L -7780.0009765625 -1679.053833007813 L -7496.00048828125 -1679.053833007813 M -7806.05908203125 -1762.771240234375 L -7802.05859375 -1762.771728515625 L -7802.05859375 -1865.50048828125 C -7802.05859375 -1867.4306640625 -7800.48828125 -1869.000854492188 -7798.55810546875 -1869.000854492188 L -7466.0830078125 -1869.000854492188 C -7464.1533203125 -1869.000854492188 -7462.5830078125 -1867.4306640625 -7462.5830078125 -1865.50048828125 L -7462.5830078125 -1811.76953125 L -7458.58203125 -1811.76953125 L -7458.58203125 -1871.000122070313 C -7458.58203125 -1872.1025390625 -7459.47900390625 -1872.99951171875 -7460.58154296875 -1872.99951171875 L -7804.0595703125 -1872.99951171875 C -7805.162109375 -1872.99951171875 -7806.05908203125 -1872.1025390625 -7806.05908203125 -1871.000122070313 L -7806.05908203125 -1762.771240234375 M -7493.00048828125 -1676.053833007813 L -7783.0009765625 -1676.053833007813 L -7783.0009765625 -1693.05322265625 L -7493.00048828125 -1693.05322265625 L -7493.00048828125 -1676.055786132813 L -7492.99853515625 -1676.054077148438 L -7493.00048828125 -1676.053833007813 Z M -7799.05859375 -1759.77099609375 L -7799.060546875 -1759.77099609375 L -7799.060546875 -1759.77197265625 L -7809.05908203125 -1759.77099609375 L -7809.05908203125 -1871.000122070313 C -7809.05908203125 -1873.7568359375 -7806.81640625 -1875.99951171875 -7804.0595703125 -1875.99951171875 L -7460.58154296875 -1875.99951171875 C -7457.82470703125 -1875.99951171875 -7455.58203125 -1873.7568359375 -7455.58203125 -1871.000122070313 L -7455.58203125 -1808.76953125 L -7465.5830078125 -1808.76953125 L -7465.5830078125 -1865.50048828125 C -7465.5830078125 -1865.7763671875 -7465.80712890625 -1866.000854492188 -7466.0830078125 -1866.000854492188 L -7798.55810546875 -1866.000854492188 C -7798.833984375 -1866.000854492188 -7799.05859375 -1865.7763671875 -7799.05859375 -1865.50048828125 L -7799.05859375 -1759.77099609375 Z" stroke="none" fill="#03dac6"/>
      </g>
      <g id="Group_147" data-name="Group 147" transform="translate(640.941 53.771)">
        <g id="screen" transform="translate(0 0)">
          <g id="Group_135" data-name="Group 135" transform="translate(0)">
            <g id="Path_308" data-name="Path 308" transform="translate(229.057 178.85)" fill="none">
              <path d="M-62.679,18.946h21.562s-1.006,1.9,1.1,15.374,10.334,15.822,23.984,19.559,48.73.866,50.979,2.079,0,13.6,0,13.6H-138.5s-2.44-12.561,0-13.6,36.913,1.462,52.363-2.079,20.923-6.089,22.8-19.559S-62.679,18.946-62.679,18.946Z" stroke="none"/>
              <path d="M -59.28989028930664 21.94605255126953 C -59.23705291748047 24.96677017211914 -59.59673309326172 29.26510238647461 -60.36040496826172 34.7348518371582 C -61.41908264160156 42.31752395629883 -63.64320755004883 46.93844985961914 -67.79733276367188 50.18605041503906 C -71.70310974121094 53.239501953125 -77.02008056640625 54.86724853515625 -85.46535491943359 56.80284881591797 C -91.59577941894531 58.20792388916016 -100.9048080444336 58.86232757568359 -114.7613525390625 58.86232757568359 C -118.9570541381836 58.86232757568359 -122.9598083496094 58.80525207519531 -126.4913558959961 58.75489807128906 C -129.2305603027344 58.71582794189453 -131.5962371826172 58.68209838867188 -133.520263671875 58.68209838867188 C -134.9693145751953 58.68209838867188 -135.9168853759766 58.70312118530273 -136.5356292724609 58.72967910766602 C -136.6121368408203 59.56395721435547 -136.6333770751953 61.13713836669922 -136.3155364990234 63.93540191650391 C -136.2084808349609 64.87792205810547 -136.0824584960938 65.78206634521484 -135.9640808105469 66.55809783935547 L 32.37947082519531 66.55809783935547 C 32.48800659179688 65.78995513916016 32.60289001464844 64.8978271484375 32.70054626464844 63.96502685546875 C 32.9976806640625 61.12651443481445 32.96900939941406 59.53166580200195 32.8895263671875 58.68529891967773 C 32.292724609375 58.65715026855469 31.38665771484375 58.63437652587891 30.0172119140625 58.6343994140625 C 27.95101928710938 58.63445281982422 25.3671875 58.6812744140625 22.37534332275391 58.73552703857422 C 18.52426910400391 58.80535125732422 14.15934753417969 58.88447570800781 9.6678466796875 58.88447570800781 C -3.14495849609375 58.88447570800781 -11.56417846679688 58.21327590942383 -16.82793426513672 56.77220153808594 C -30.60832977294922 52.99947357177734 -40.56488037109375 50.27362442016602 -42.98410797119141 34.78292465209961 C -43.37117385864258 32.3044548034668 -44.30651473999023 26.31475830078125 -44.35337066650391 21.94605255126953 L -59.28989028930664 21.94605255126953 M -62.67870712280273 18.94605255126953 L -41.11717987060547 18.94605255126953 C -41.11717987060547 18.94605255126953 -42.12360763549805 20.85034942626953 -40.0200309753418 34.32002639770508 C -37.91642761230469 47.78969955444336 -29.68578338623047 50.14165115356445 -16.03575897216797 53.8786735534668 C -10.05886840820313 55.5150032043457 0.02884674072265625 55.88447570800781 9.6678466796875 55.88447570800781 C 17.59912872314453 55.88447570800781 25.228271484375 55.63448715209961 30.01713562011719 55.63440704345703 C 32.69996643066406 55.63435745239258 34.48907470703125 55.71276092529297 34.9429931640625 55.95752334594727 C 37.19181823730469 57.17020034790039 34.9429931640625 69.55809783935547 34.9429931640625 69.55809783935547 L -138.4980773925781 69.55809783935547 C -138.4980773925781 69.55809783935547 -140.9384613037109 56.99697494506836 -138.4980773925781 55.95752334594727 C -138.0052185058594 55.74759674072266 -136.2056884765625 55.68210983276367 -133.520263671875 55.68210601806641 C -129.0656433105469 55.68210601806641 -122.1720581054688 55.86231994628906 -114.7613677978516 55.86231994628906 C -104.5195159912109 55.86231994628906 -93.28910064697266 55.51822662353516 -86.13555908203125 53.8786735534668 C -70.68555450439453 50.33765029907227 -65.21218109130859 47.78969955444336 -63.33158111572266 34.32002639770508 C -61.45098114013672 20.85034942626953 -62.67870712280273 18.94605255126953 -62.67870712280273 18.94605255126953 Z" stroke="none" fill="#03dac6"/>
            </g>
          </g>
        </g>
      </g>
    </g>
    <g id="Group_154" data-name="Group 154" transform="translate(228.025 2.15)">
      <g id="Group_145" data-name="Group 145" transform="translate(1007.916 241.087)">
        <g id="Ellipse_48" data-name="Ellipse 48" transform="translate(5.533 1)" fill="none" stroke="#03dac6" stroke-width="2">
          <ellipse cx="34.692" cy="4.327" rx="34.692" ry="4.327" stroke="none"/>
          <ellipse cx="34.692" cy="4.327" rx="33.692" ry="3.327" fill="none"/>
        </g>
        <g id="Union_4" data-name="Union 4" transform="translate(0 4.701)" fill="none">
          <path d="M19.237,56.849S4.428,47.124.875,32.873,5.739.118,5.739.118A2.738,2.738,0,0,0,7.458.84,261.317,261.317,0,0,0,39.409,2.8,317.107,317.107,0,0,0,73.643.645C74.808.372,74.714.034,74.7,0a72.134,72.134,0,0,1,2.58,8.339,16.72,16.72,0,0,1,3.445-1.994,8.841,8.841,0,0,1,7.515.552c3.236,2.279,10.492,7.148,4.553,20.817C87.9,38.984,71.457,48.558,65.826,51.576a53.666,53.666,0,0,1-6.57,5.273A97.3,97.3,0,0,1,39.428,59.2,103.219,103.219,0,0,1,19.237,56.849ZM78.192,32.873A29.156,29.156,0,0,1,77.135,36c4.874-3.257,10.738-8.535,11.711-15.491.937-6.7-3.01-9.693-7.04-8.594a14.941,14.941,0,0,0-3.452,1.413C79.439,19.363,79.931,26.548,78.192,32.873ZM74.7,0V0Z" stroke="none"/>
          <path d="M 39.42789840698242 57.20212173461914 C 48.04400634765625 57.20212173461914 56.65185165405273 55.3837890625 58.44950866699219 54.98167037963867 C 59.244384765625 54.43781280517578 61.63986587524414 52.73430633544922 64.46520233154297 50.11013412475586 L 64.65415954589844 49.93463516235352 L 64.88145446777344 49.81280517578125 C 67.63645935058594 48.33612060546875 73.05172729492188 45.24774932861328 78.36594390869141 41.15509033203125 C 81.29096984863281 38.90243530273438 83.80328369140625 36.63719177246094 85.83311462402344 34.42230606079102 C 88.18946838378906 31.85111999511719 89.91446685791016 29.32687759399414 90.96021270751953 26.91962051391602 C 93.25142669677734 21.64601898193359 93.66457366943359 17.2908763885498 92.18815612792969 13.97514820098877 C 90.98536682128906 11.27394866943359 88.80801391601563 9.742691040039063 87.21818542480469 8.624605178833008 L 87.08992767333984 8.53436279296875 C 86.66165924072266 8.232790946960449 85.39028167724609 7.754348278045654 83.80189514160156 7.754348278045654 C 82.94328308105469 7.754348278045654 82.15959930419922 7.900177001953125 81.53458404541016 8.176534652709961 C 80.35658264160156 8.696605682373047 79.33578491210938 9.28563404083252 78.50055694580078 9.927248954772949 L 76.08013916015625 11.78659152984619 L 75.34159851074219 8.825148582458496 C 74.69722747802734 6.24128532409668 74.02808380126953 4.109860897064209 73.54515075683594 2.68647313117981 C 70.01898193359375 3.195022344589233 52.8780517578125 4.803848266601563 39.40877151489258 4.803848266601563 C 25.8061408996582 4.803848266601563 12.41458415985107 3.586305618286133 7.169355869293213 2.818934202194214 C 7.043892383575439 2.800616264343262 6.923035621643066 2.779666900634766 6.806558132171631 2.756412744522095 C 6.060080528259277 4.645620822906494 4.887439250946045 7.867137432098389 3.892627239227295 11.72233390808105 C 2.964570045471191 15.31889152526855 2.370498657226563 18.75557708740234 2.126927137374878 21.93689155578613 C 1.828041434288025 25.84097671508789 2.059627056121826 29.35750579833984 2.815255641937256 32.38867568969727 C 3.568627119064331 35.40976333618164 4.940569877624512 38.47506332397461 6.892984390258789 41.49942016601563 C 8.479984283447266 43.95773315429688 10.45041275024414 46.39262008666992 12.74949836730957 48.7364616394043 C 16.05831718444824 52.10966873168945 19.11464691162109 54.33010864257813 20.04592895507813 54.97941207885742 C 21.91901397705078 55.3848991394043 30.79773139953613 57.20212173461914 39.42789840698242 57.20212173461914 M 83.42343902587891 9.691220283508301 C 85.54848480224609 9.691220283508301 87.47653961181641 10.5623197555542 88.85243988037109 12.14403438568115 C 90.10308074951172 13.58174896240234 91.46071624755859 16.2478199005127 90.82625579833984 20.78439140319824 C 89.74620056152344 28.50686264038086 83.38892364501953 34.2246208190918 78.24602508544922 37.66136169433594 L 72.87313079833984 41.25179290771484 L 75.27851104736328 35.25402069091797 C 75.66745758056641 34.28422164916992 75.99869537353516 33.30469131469727 76.26316833496094 32.34222030639648 C 77.01508331298828 29.60836219787598 77.374755859375 26.47070503234863 77.33219909667969 23.01642036437988 C 77.29647064208984 20.1169490814209 76.97798156738281 16.97603416442871 76.38555908203125 13.68093395233154 L 76.13523864746094 12.28861999511719 L 77.36466979980469 11.58886241912842 C 78.56847381591797 10.90369129180908 79.88575744628906 10.3637056350708 81.27931213378906 9.984091758728027 C 81.99181365966797 9.789748191833496 82.71321105957031 9.691220283508301 83.42343902587891 9.691220283508301 M 39.42789840698242 59.20212173461914 C 29.42322731018066 59.20212173461914 19.23659896850586 56.84867858886719 19.23659896850586 56.84867858886719 C 19.23659896850586 56.84867858886719 4.428441524505615 47.12351989746094 0.8746843338012695 32.87259292602539 C -2.677858591079712 18.62166213989258 5.738812923431396 0.1179199144244194 5.738812923431396 0.1179199144244194 C 5.738812923431396 0.1179199144244194 6.166655540466309 0.6513342261314392 7.458298683166504 0.8399199247360229 C 12.02119827270508 1.507462739944458 25.40988349914551 2.803848505020142 39.40877151489258 2.803848505020142 C 54.0723991394043 2.803848505020142 72.41722869873047 0.9316627979278564 73.64250946044922 0.6451627612113953 C 74.80757141113281 0.3722913563251495 74.71434020996094 0.03423420339822769 74.70254516601563 0.002491346094757318 C 74.74324035644531 0.1038913428783417 76.06175231933594 3.447520017623901 77.28217315673828 8.341205596923828 C 78.04869842529297 7.752362728118896 79.16855621337891 7.034862995147705 80.72682952880859 6.346905708312988 C 81.67710113525391 5.926750659942627 82.75198364257813 5.754342555999756 83.80190277099609 5.754342555999756 C 85.60707092285156 5.754342555999756 87.33905792236328 6.263686180114746 88.24142456054688 6.899119853973389 C 91.47766876220703 9.178119659423828 98.73336791992188 14.04751968383789 92.7945556640625 27.71659088134766 C 87.89990234375 38.98393249511719 71.45652770996094 48.55773544311523 65.82628631591797 51.5755500793457 C 62.20331192016602 54.9405632019043 59.25650024414063 56.84867858886719 59.25650024414063 56.84867858886719 C 59.25650024414063 56.84867858886719 49.43296813964844 59.20212173461914 39.42789840698242 59.20212173461914 Z M 83.42344665527344 11.69121551513672 C 82.89350891113281 11.69121551513672 82.35041809082031 11.7650089263916 81.80558776855469 11.91360569000244 C 80.33481597900391 12.31426239013672 79.17140197753906 12.86179161071777 78.35399627685547 13.32703399658203 C 79.43925476074219 19.36334800720215 79.93099975585938 26.54817771911621 78.19156646728516 32.87259292602539 C 77.8980712890625 33.94069290161133 77.54188537597656 34.98342132568359 77.13479614257813 35.99847793579102 C 82.00910949707031 32.74121856689453 87.87262725830078 27.46372032165527 88.84552764892578 20.50737762451172 C 89.65592193603516 14.71274948120117 86.81333923339844 11.69121551513672 83.42344665527344 11.69121551513672 Z M 74.70254516601563 0.002491346094757318 C 74.70214080810547 0.0008444710983894765 74.70212554931641 5.566973050008528e-05 74.70212554931641 7.975550943228882e-06 C 74.70212554931641 5.566973050008528e-05 74.70214080810547 0.0008444710983894765 74.70254516601563 0.002491346094757318 Z M 74.70212554931641 7.975550943228882e-06 C 74.70212554931641 6.437029242079007e-06 74.70212554931641 5.631801286654081e-06 74.70212554931641 5.631801286654081e-06 C 74.70212554931641 5.631801286654081e-06 74.70212554931641 6.437029242079007e-06 74.70212554931641 7.975550943228882e-06 Z" stroke="none" fill="#03dac6"/>
        </g>
      </g>
      <g id="Group_149" data-name="Group 149" transform="translate(1026.977 171.038)">
        <g id="Path_323" data-name="Path 323" transform="translate(25.939 -2.208)" fill="none">
          <path d="M6.789,2.208S2.719,15.857,3.737,23.063s11.169,15.514,14.5,27.722c1.983,7.276-1.374,13.937-4.731,18.066-2.112,2.6-4.746,5.132-4.425,3.975s5.934-4.747,5.849-15.938S2.634,37.9.854,26.369,6.789,2.208,6.789,2.208Z" stroke="none"/>
          <path d="M 3.417353630065918 12.25466156005859 C 2.792430877685547 14.1890754699707 2.322778701782227 16.07956695556641 2.016551971435547 17.89633560180664 C 1.511381149291992 20.89337921142578 1.452840805053711 23.6927375793457 1.842552185058594 26.21665573120117 C 2.650371551513672 31.44844818115234 5.788811683654785 36.010986328125 8.823931694030762 40.42329788208008 C 12.29287147521973 45.46628570556641 15.87991142272949 50.68096923828125 15.92691135406494 56.88074493408203 C 15.95382404327393 60.43105316162109 15.41411590576172 63.26628112792969 14.64814281463623 65.51840209960938 C 15.49167537689209 64.15384674072266 16.31908226013184 62.52331161499023 16.91980171203613 60.68671798706055 C 17.99692153930664 57.39365768432617 18.11420249938965 54.15054702758789 17.26841163635254 51.0474853515625 C 15.54483222961426 44.72403717041016 11.91802215576172 39.43768692016602 8.718161582946777 34.77362823486328 C 5.787251472473145 30.50160598754883 3.256031036376953 26.81215667724609 2.746461868286133 23.20279693603516 C 2.373762130737305 20.56291580200195 2.599624633789063 16.88762283325195 3.417353630065918 12.25466156005859 M 6.788521766662598 2.208297729492188 C 6.788521766662598 2.208297729492188 2.719310760498047 15.85710906982422 3.736641883850098 23.06300735473633 C 4.753972053527832 30.26891708374023 14.90579223632813 38.57687759399414 18.23321151733398 50.78451538085938 C 20.21635246276855 58.06026458740234 16.859130859375 64.72148895263672 13.50238227844238 68.85097503662109 C 11.75212478637695 71.00492858886719 9.642704963684082 73.11399078369141 9.154830932617188 73.11399078369141 C 9.054095268249512 73.11399078369141 9.022496223449707 73.02407836914063 9.077461242675781 72.82608032226563 C 9.398621559143066 71.66914367675781 15.01177215576172 68.07866668701172 14.92694187164307 56.88832855224609 C 14.84210205078125 45.6979866027832 2.634471893310547 37.89868545532227 0.8542613983154297 26.36925888061523 C -0.9259490966796875 14.83981704711914 6.788521766662598 2.208297729492188 6.788521766662598 2.208297729492188 Z" stroke="none" fill="#03dac6"/>
        </g>
        <g id="Path_324" data-name="Path 324" transform="translate(14.694 29.904)" fill="none">
          <path d="M7.579,6.985s5.888,4.5,7.465,9.586.743,7.359-1.157,10.775c-1.343,2.414-4.422,6.7-4.334,9.5A7.3,7.3,0,0,0,13,43.017c1.4,1,2.895,1.628,2.993,1.883.2.521-4.7-1.6-4.7-1.6L6.731,40.482s-4.592-3.55-1.7-8.8,6.358-6.635,7.023-12.927S7.579,6.985,7.579,6.985Z" stroke="none"/>
          <path d="M 12.49795532226563 13.65563583374023 C 13.0363826751709 15.44343185424805 13.22622013092041 17.20254135131836 13.05072975158691 18.86281204223633 C 12.58924007415771 23.22893142700195 10.81558036804199 25.4575309753418 8.937789916992188 27.81698036193848 C 7.929780006408691 29.08355140686035 6.887450218200684 30.39323997497559 5.909180641174316 32.16718292236328 C 4.891369819641113 34.01283264160156 4.806659698486328 35.81911087036133 5.657400131225586 37.53584289550781 C 6.256552696228027 38.74489974975586 7.135303497314453 39.51755905151367 7.311564445495605 39.66514205932617 L 9.811488151550293 41.21171569824219 C 9.112404823303223 40.11787796020508 8.610722541809082 38.71852111816406 8.552499771118164 36.87475204467773 C 8.473230361938477 34.36436080932617 10.43315029144287 31.14092063903809 12.00798034667969 28.55085182189941 C 12.38484001159668 27.9310302734375 12.74080085754395 27.34559059143066 13.01177978515625 26.85866165161133 C 13.96537017822266 25.14487075805664 14.56035995483398 23.8715705871582 14.77972030639648 22.43467140197754 C 15.01560020446777 20.88960075378418 14.80222034454346 19.17221069335938 14.08786010742188 16.86614227294922 C 13.74437046051025 15.75729370117188 13.17269897460938 14.67054748535156 12.49795532226563 13.65563583374023 M 7.578550338745117 6.98468017578125 C 7.578550338745117 6.98468017578125 13.4663200378418 11.48018264770508 15.04308032989502 16.57024002075195 C 16.61985015869141 21.66029167175293 15.78597068786621 23.9295711517334 13.88561058044434 27.34488105773926 C 12.5421199798584 29.75909042358398 9.463680267333984 34.04624176025391 9.552000045776367 36.84319305419922 C 9.655550003051758 40.12237167358398 11.27801036834717 41.78855133056641 12.99510955810547 43.01708221435547 C 14.39400005340576 44.02077102661133 15.88988018035889 44.64495086669922 15.98838996887207 44.90042877197266 C 16.01036834716797 44.95742797851563 15.9711971282959 44.98284912109375 15.88422393798828 44.98284912109375 C 15.17556953430176 44.98284912109375 11.2845401763916 43.29891204833984 11.2845401763916 43.29891204833984 L 6.731320381164551 40.48207092285156 C 6.731320381164551 40.48207092285156 2.139530181884766 36.93207168579102 5.033510208129883 31.68428039550781 C 7.927490234375 26.43648147583008 11.3912296295166 25.04953002929688 12.05627059936523 18.7577018737793 C 12.72130966186523 12.46588134765625 7.578550338745117 6.98468017578125 7.578550338745117 6.98468017578125 Z" stroke="none" fill="#03dac6"/>
        </g>
        <g id="Path_325" data-name="Path 325" transform="translate(8.889 6.046)" fill="none">
          <path d="M8.887,2.208s2.806,9.411,2.1,14.38S3.29,27.285,1,35.7c-1.367,5.017.947,9.61,3.262,12.457C5.714,49.952,7.531,51.7,7.309,50.9s-4.092-3.273-4.033-10.99,8.476-13.094,9.7-21.044S8.887,2.208,8.887,2.208Z" stroke="none"/>
          <path d="M 12.10269069671631 14.95712661743164 C 12.09713172912598 15.58445358276367 12.05938625335693 16.17984771728516 11.98200035095215 16.72798156738281 C 11.62045001983643 19.28888320922852 9.855999946594238 21.86071395874023 7.812939643859863 24.83863258361816 C 5.620479583740234 28.03432273864746 3.135479927062988 31.65639305114746 1.960840225219727 35.96591186523438 C 1.393879890441895 38.04599380493164 1.473249435424805 40.22225189208984 2.196760177612305 42.43424224853516 C 2.297427177429199 42.74201583862305 2.407608985900879 43.04141235351563 2.52501392364502 43.33152389526367 C 2.359801292419434 42.31065368652344 2.26622486114502 41.17218017578125 2.275839805603027 39.90409469604492 C 2.308969497680664 35.53400421142578 4.809749603271484 31.89846420288086 7.22819995880127 28.38263320922852 C 9.301219940185547 25.36895370483398 11.4448299407959 22.25268363952637 11.99100971221924 18.71533203125 C 12.18336868286133 17.46954727172852 12.20114326477051 16.19948577880859 12.10269069671631 14.95712661743164 M 8.887470245361328 2.208293914794922 C 8.887470245361328 2.208293914794922 14.20680999755859 10.91807174682617 12.97929954528809 18.86793518066406 C 11.75179958343506 26.81779289245605 3.334309577941895 32.19563293457031 3.275810241699219 39.91167449951172 C 3.217309951782227 47.62771224975586 7.087729930877686 50.10345458984375 7.309179782867432 50.90118408203125 C 7.347081184387207 51.03771209716797 7.325293064117432 51.09970855712891 7.255833148956299 51.09970855712891 C 6.919433116912842 51.09970855712891 5.464929580688477 49.64545440673828 4.258079528808594 48.16024398803711 C 1.943499565124512 45.31285095214844 -0.3713903427124023 40.71975326538086 0.9960393905639648 35.70293426513672 C 3.290390014648438 27.28543281555176 10.29033946990967 21.55686187744141 10.99181938171387 16.58819198608398 C 11.69330024719238 11.61953353881836 8.887470245361328 2.208293914794922 8.887470245361328 2.208293914794922 Z" stroke="none" fill="#03dac6"/>
        </g>
        <g id="Path_326" data-name="Path 326" transform="translate(-0.772 35.189)" fill="none">
          <path d="M.789,15.307C.424,9.638,6.071,7.025,6.071,7.025a12.8,12.8,0,0,0-2.087,8.608c.734,4.712,3.283,5.079,5.282,10.108,2.434,6.125-.326,13.436-1.109,14.086s1.125-3.913-.717-10.3S1.155,20.976.789,15.307Z" stroke="none"/>
          <path d="M 3.405951499938965 10.39875030517578 C 2.216748237609863 11.8390998840332 1.672661781311035 13.46495056152344 1.78722095489502 15.24279022216797 C 1.967270851135254 18.03709030151367 3.248750686645508 19.91432952880859 4.732580661773682 22.08798980712891 C 6.035340309143066 23.99639892578125 7.51192045211792 26.1594295501709 8.401741027832031 29.24629020690918 C 8.799758911132813 30.62703132629395 9.030630111694336 31.92516708374023 9.153665542602539 33.10941696166992 C 9.359024047851563 31.08419799804688 9.298877716064453 28.52939605712891 8.337490081787109 26.11030960083008 C 7.499720573425293 24.00230026245117 6.578240394592285 22.78753852844238 5.687090396881104 21.61275863647461 C 4.53307056427002 20.09144020080566 3.44304084777832 18.65447998046875 2.996560096740723 15.7869987487793 C 2.684021949768066 13.77981567382813 2.956051826477051 11.92151260375977 3.405951499938965 10.39875030517578 M 6.071430683135986 7.025188446044922 C 6.071430683135986 7.025188446044922 3.251020431518555 10.92160034179688 3.984650611877441 15.63315010070801 C 4.718270778656006 20.3447093963623 7.268130779266357 20.71195983886719 9.266790390014648 25.74098014831543 C 11.70111083984375 31.86631011962891 8.94105052947998 39.17673873901367 8.158150672912598 39.82672882080078 C 8.108312606811523 39.86810684204102 8.069372177124023 39.88836288452148 8.039680480957031 39.88836288452148 C 7.602960586547852 39.88836288452148 9.165805816650391 35.50718688964844 7.440870761871338 29.52326965332031 C 5.598650455474854 23.13250923156738 1.154580116271973 20.97612953186035 0.7892904281616211 15.30709075927734 C 0.4239902496337891 9.638057708740234 6.071430683135986 7.025188446044922 6.071430683135986 7.025188446044922 Z" stroke="none" fill="#03dac6"/>
        </g>
      </g>
    </g>
    <g id="Group_155" data-name="Group 155" transform="translate(175.384 -24.812)">
      <g id="Rectangle_168" data-name="Rectangle 168" transform="translate(422 196)" fill="none" stroke="#03dac6" stroke-width="3">
        <rect width="71.616" height="134" rx="5" stroke="none"/>
        <rect x="1.5" y="1.5" width="68.616" height="131" rx="3.5" fill="none"/>
      </g>
      <line id="Line_20" data-name="Line 20" x2="18.799" transform="translate(443.037 206.5)" fill="none" stroke="#03dac6" stroke-linecap="round" stroke-width="2"/>
      <g id="Ellipse_49" data-name="Ellipse 49" transform="translate(464.97 205)" fill="none" stroke="#03dac6" stroke-width="1">
        <ellipse cx="1.343" cy="1.5" rx="1.343" ry="1.5" stroke="none"/>
        <ellipse cx="1.343" cy="1.5" rx="0.843" ry="1" fill="none"/>
      </g>
      <line id="Line_21" data-name="Line 21" x2="34.018" transform="translate(439.456 320.5)" fill="none" stroke="#03dac6" stroke-linecap="round" stroke-width="1"/>
      <g id="Rectangle_169" data-name="Rectangle 169" transform="translate(426.476 201)" fill="none" stroke="#03dac6" stroke-width="1">
        <rect width="62.664" height="124" rx="3" stroke="none"/>
        <rect x="0.5" y="0.5" width="61.664" height="123" rx="2.5" fill="none"/>
      </g>
    </g>
    <path id="Path_334" data-name="Path 334" d="M-185,0H1464.928" transform="translate(320.035 307.459)" fill="none" stroke="#03dac6" stroke-linecap="round" stroke-width="3"/>
    <g id="Group_156" data-name="Group 156" transform="translate(-7674.082 -1534.821)">
      <g id="Rectangle_170" data-name="Rectangle 170" transform="translate(8629 1657)" fill="none" stroke="#03dac6" stroke-width="3">
        <rect width="251" height="170" rx="7" stroke="none"/>
        <rect x="1.5" y="1.5" width="248" height="167" rx="5.5" fill="none"/>
      </g>
      <g id="Rectangle_171" data-name="Rectangle 171" transform="translate(8639 1669)" fill="none" stroke="#03dac6" stroke-width="2">
        <rect width="230" height="149" rx="2" stroke="none"/>
        <rect x="1" y="1" width="228" height="147" rx="1" fill="none"/>
      </g>
      <g id="Rectangle_172" data-name="Rectangle 172" transform="translate(8612 1824)" fill="none" stroke="#03dac6" stroke-width="3">
        <path d="M0,0H285a0,0,0,0,1,0,0V9a8,8,0,0,1-8,8H8A8,8,0,0,1,0,9V0A0,0,0,0,1,0,0Z" stroke="none"/>
        <path d="M3,1.5H282A1.5,1.5,0,0,1,283.5,3V9a6.5,6.5,0,0,1-6.5,6.5H8A6.5,6.5,0,0,1,1.5,9V3A1.5,1.5,0,0,1,3,1.5Z" fill="none"/>
      </g>
      <g id="Rectangle_173" data-name="Rectangle 173" transform="translate(8735 1825)" fill="none" stroke="#03dac6" stroke-width="2">
        <path d="M0,0H38a0,0,0,0,1,0,0V3a6,6,0,0,1-6,6H6A6,6,0,0,1,0,3V0A0,0,0,0,1,0,0Z" stroke="none"/>
        <path d="M2,1H36a1,1,0,0,1,1,1V3a5,5,0,0,1-5,5H6A5,5,0,0,1,1,3V2A1,1,0,0,1,2,1Z" fill="none"/>
      </g>
    </g>
    <g id="Group_159" data-name="Group 159" transform="translate(0 -1)">
      <g id="Path_328" data-name="Path 328" transform="translate(450.883 231.946)" fill="none">
        <path d="M49.229,6.207A294.352,294.352,0,0,0,80.5,8.092a320.9,320.9,0,0,0,32.1-1.885V74.843H49.229Z" stroke="none"/>
        <path d="M 109.6032257080078 9.535377502441406 C 103.9702301025391 10.08501434326172 92.07260131835938 11.09172821044922 80.50279235839844 11.09172821044922 C 69.04525756835938 11.09172821044922 57.69426727294922 10.10440063476563 52.22948455810547 9.550636291503906 L 52.22948455810547 71.84325408935547 L 80.50279235839844 71.84325408935547 L 109.6032257080078 71.84325408935547 L 109.6032257080078 9.535377502441406 M 49.22948455810547 6.207145690917969 C 49.22948455810547 6.207145690917969 64.65935516357422 8.091728210449219 80.50279235839844 8.091728210449219 C 96.34622955322266 8.091728210449219 112.6032257080078 6.207145690917969 112.6032257080078 6.207145690917969 L 112.6032257080078 74.84325408935547 L 80.50279235839844 74.84325408935547 L 49.22948455810547 74.84325408935547 L 49.22948455810547 6.207145690917969 Z" stroke="none" fill="#03dac6"/>
      </g>
      <g id="Group_157" data-name="Group 157" transform="translate(491.364 168.188)">
        <g id="Path_329" data-name="Path 329" transform="translate(-7.544 -2.869)" fill="none">
          <path d="M17.225,2.869a34.084,34.084,0,0,0,.667,7.014c.7,2.568,2.114,3.257,2.114,3.257a3.374,3.374,0,0,0,.529-.961c.362-.814.917-2.3.917-2.3s1.215,5.773,3.124,8.589,5.008,6.03,5.529,8.968a17.145,17.145,0,0,1-3.2,13.131,12.448,12.448,0,0,0-4.5,0,16.311,16.311,0,0,0-4.512,1.879S7.325,35.436,7.547,23.411,17.225,2.869,17.225,2.869Z" stroke="none"/>
          <path d="M 15.49562644958496 7.820747375488281 C 15.03708648681641 8.421649932861328 14.55692863464355 9.092266082763672 14.07748031616211 9.825908660888672 C 12.78829002380371 11.7985954284668 11.75493049621582 13.83702659606934 11.00613021850586 15.88456726074219 C 10.08396148681641 18.40614700317383 9.59296989440918 20.95098686218262 9.54680061340332 23.44839668273926 C 9.501590728759766 25.89360809326172 9.954570770263672 28.31117820739746 10.89318084716797 30.63393783569336 C 11.65596008300781 32.5216064453125 12.7408504486084 34.35744857788086 14.11769104003906 36.09045791625977 C 15.60361480712891 37.96074676513672 17.11932373046875 39.31373977661133 18.05899429321289 40.0734748840332 C 19.0450553894043 39.57144165039063 20.50630950927734 38.92441940307617 21.99590110778809 38.61379623413086 C 22.7942008972168 38.44732666015625 23.66072082519531 38.36291885375977 24.5713996887207 38.36291885375977 C 25.09169006347656 38.36291885375977 25.56661415100098 38.39017486572266 25.96995162963867 38.42681121826172 C 26.31390953063965 37.88319396972656 26.75751113891602 37.0972785949707 27.16923141479492 36.11212921142578 C 28.30762100219727 33.38818740844727 28.63289070129395 30.58844757080078 28.13601112365723 27.79067802429199 C 27.84126091003418 26.13099670410156 26.19118118286133 23.97005653381348 24.7353515625 22.06349754333496 C 24.11427116394043 21.25013732910156 23.47204971313477 20.40908813476563 22.92021179199219 19.5949764251709 C 22.18400955200195 18.50889778137207 21.48196601867676 16.99425506591797 20.82687187194824 15.08079528808594 L 20.32709121704102 15.5196475982666 L 19.13205146789551 14.93932723999023 C 18.7584114074707 14.75787734985352 16.84954071044922 13.68657684326172 15.96141052246094 10.4062385559082 C 15.75265693664551 9.635200500488281 15.60297203063965 8.730861663818359 15.49562644958496 7.820747375488281 M 17.22490119934082 2.869136810302734 C 17.22490119934082 2.869136810302734 17.19670104980469 7.315788269042969 17.89191055297852 9.883567810058594 C 18.58711051940918 12.45133590698242 20.0057201385498 13.14023590087891 20.0057201385498 13.14023590087891 C 20.0057201385498 13.14023590087891 20.17346000671387 12.99294662475586 20.53499984741211 12.17877578735352 C 20.89653015136719 11.36460876464844 21.45188140869141 9.883567810058594 21.45188140869141 9.883567810058594 C 21.45188140869141 9.883567810058594 22.6665210723877 15.6562671661377 24.57571029663086 18.47278785705566 C 26.48488998413086 21.28929710388184 29.58335113525391 24.50256729125977 30.10520172119141 27.44095802307129 C 31.46774101257324 35.11298751831055 26.90201187133789 40.57167816162109 26.90201187133789 40.57167816162109 C 26.90201187133789 40.57167816162109 25.90397262573242 40.36291122436523 24.57140159606934 40.36291122436523 C 23.90499496459961 40.36291122436523 23.15510559082031 40.41508483886719 22.40417098999023 40.57167816162109 C 20.15165138244629 41.04139709472656 17.89191055297852 42.45055770874023 17.89191055297852 42.45055770874023 C 17.89191055297852 42.45055770874023 7.324800491333008 35.43612670898438 7.547140121459961 23.41142654418945 C 7.76947021484375 11.38671875 17.22490119934082 2.869136810302734 17.22490119934082 2.869136810302734 Z" stroke="none" fill="#03dac6"/>
        </g>
        <g id="Path_330" data-name="Path 330" transform="translate(7.064 42.499)" fill="none">
          <path d="M3.963-.807a9.324,9.324,0,0,1,3.965-2.38,8.732,8.732,0,0,1,4.5.527,310.9,310.9,0,0,1,9.968,44.207c3.382,23.488,7.345,48.869,3.561,49.746S15.874,66.7,10.376,43.677A264.477,264.477,0,0,1,3.963-.807Z" stroke="none"/>
          <path d="M 9.141445159912109 -1.310417175292969 C 8.85350227355957 -1.310417175292969 8.589031219482422 -1.284477233886719 8.355344772338867 -1.233299255371094 C 7.507083892822266 -1.04754638671875 6.614831924438477 -0.449615478515625 6.009698867797852 0.0396575927734375 C 6.116165161132813 1.912574768066406 6.41697883605957 6.483100891113281 7.099830627441406 12.62002563476563 C 7.929317474365234 20.07483673095703 9.508487701416016 31.43379592895508 12.32113075256348 43.21278381347656 C 14.73620223999023 53.32681274414063 17.53028869628906 64.86902618408203 20.12744522094727 73.84600830078125 C 21.47240257263184 78.49485778808594 22.6898307800293 82.189208984375 23.74588775634766 84.82646942138672 C 24.40521621704102 86.47296905517578 24.93220520019531 87.53790283203125 25.32763481140137 88.22332763671875 C 25.41763687133789 87.54828643798828 25.49009132385254 86.57455444335938 25.49515914916992 85.18159484863281 C 25.5042724609375 82.67156982421875 25.29921722412109 79.36270141601563 24.86824417114258 75.06587219238281 C 24.05925941467285 67.00031280517578 22.55960273742676 56.64984130859375 21.10931777954102 46.64016723632813 C 20.87663078308105 45.03425598144531 20.6440315246582 43.42881011962891 20.41408920288086 41.83211135864258 C 18.68133163452148 29.79935455322266 16.08474540710449 18.512451171875 14.21160316467285 11.16278076171875 C 12.69041061401367 5.194038391113281 11.38721656799316 0.7851791381835938 10.82091522216797 -1.077011108398438 C 10.3580322265625 -1.196258544921875 9.754743576049805 -1.310417175292969 9.141445159912109 -1.310417175292969 M 9.141441345214844 -3.310417175292969 C 10.86076545715332 -3.310417175292969 12.42535972595215 -2.660057067871094 12.42535972595215 -2.660057067871094 C 12.42535972595215 -2.660057067871094 19.01127243041992 18.05870056152344 22.39367294311523 41.54703903198242 C 25.77607345581055 65.03538513183594 29.73857307434082 90.41612243652344 25.95495986938477 91.29329681396484 C 25.89145278930664 91.30802154541016 25.8270378112793 91.31533813476563 25.76213073730469 91.31533813476563 C 21.95996856689453 91.31533813476563 15.78156280517578 66.31588745117188 10.37581634521484 43.67729568481445 C 4.877801895141602 20.65222930908203 3.962888717651367 -0.80694580078125 3.962888717651367 -0.80694580078125 C 3.962888717651367 -0.80694580078125 5.81190299987793 -2.723716735839844 7.927516937255859 -3.187004089355469 C 8.328586578369141 -3.274826049804688 8.739255905151367 -3.310417175292969 9.141441345214844 -3.310417175292969 Z" stroke="none" fill="#03dac6"/>
        </g>
      </g>
      <g id="Group_158" data-name="Group 158" transform="matrix(0.966, 0.259, -0.259, 0.966, 536.182, 179.269)">
        <g id="Path_331" data-name="Path 331" transform="matrix(0.966, -0.259, 0.259, 0.966, -0.277, 7.879)" fill="none">
          <path d="M23.515,4.849s1.827-6.11,7.156-4.613,3.441,8.295,3.441,8.295S11.459,98.05,10.463,101.139s-8.087,9.506-8.087,9.506S.1,101.944,0,98.159,23.515,4.849,23.515,4.849Z" stroke="none"/>
          <path d="M 29.04837417602539 2.000007629394531 C 28.67957496643066 2.000007629394531 27.55727386474609 2.000007629394531 26.42765808105469 3.518524169921875 C 25.79956436157227 4.362884521484375 25.48739624023438 5.252067565917969 25.43547439575195 5.407997131347656 C 25.12436485290527 6.587783813476563 19.43388366699219 28.17404937744141 13.78657531738281 50.07332229614258 C 3.349395751953125 90.54690551757813 2.060012817382813 97.18589019775391 2.000614166259766 98.13844299316406 C 2.063102722167969 100.1310348510742 2.823436737060547 103.8691177368164 3.496955871582031 106.798713684082 C 3.85565185546875 106.4392929077148 4.233041763305664 106.0539093017578 4.614274978637695 105.6536865234375 C 7.828424453735352 102.2793884277344 8.446357727050781 100.8755187988281 8.55919075012207 100.5256423950195 C 9.331691741943359 98.13014221191406 24.34287452697754 38.98162078857422 32.17238998413086 8.040458679199219 L 32.17575836181641 8.025436401367188 L 32.18315887451172 7.999565124511719 C 32.20418548583984 7.919143676757813 32.56041717529297 6.522239685058594 32.39059066772461 5.065170288085938 C 32.14832305908203 2.986701965332031 31.05500793457031 2.421722412109375 30.12954139709473 2.161689758300781 C 29.7476921081543 2.054405212402344 29.38394165039063 2.000007629394531 29.04837417602539 2.000007629394531 M 29.04837608337402 7.62939453125e-06 C 29.54894638061523 7.62939453125e-06 30.0886344909668 0.07275390625 30.67054176330566 0.2362594604492188 C 35.99977493286133 1.733573913574219 34.11127471923828 8.531089782714844 34.11127471923828 8.531089782714844 C 34.11127471923828 8.531089782714844 11.45895767211914 98.04997253417969 10.46267509460449 101.1394577026367 C 9.466390609741211 104.2289581298828 2.375473022460938 110.6452560424805 2.375473022460938 110.6452560424805 C 2.375473022460938 110.6452560424805 0.1045417785644531 101.9443206787109 0.000339508056640625 98.15869140625 C -0.1038589477539063 94.37306976318359 23.51455688476563 4.848838806152344 23.51455688476563 4.848838806152344 C 23.51455688476563 4.848838806152344 24.96463012695313 7.62939453125e-06 29.04837608337402 7.62939453125e-06 Z" stroke="none" fill="#03dac6"/>
        </g>
        <path id="Path_333" data-name="Path 333" d="M0,0,.063,4.2" transform="translate(30.51 112.378)" fill="none" stroke="#03dac6" stroke-linecap="round" stroke-width="3"/>
        <path id="Path_332" data-name="Path 332" d="M0,0,14.049,4.217,9.229,23.286" transform="matrix(0.966, -0.259, 0.259, 0.966, 24.637, 22.189)" fill="none" stroke="#03dac6" stroke-linecap="round" stroke-width="3"/>
      </g>
    </g>
  </g>
</svg>
