<svg xmlns="http://www.w3.org/2000/svg" width="46.323" height="45.165" viewBox="0 0 46.323 45.165">
  <path id="github-icon" d="M15.494,36.929c0,.187-.215.336-.486.336-.308.028-.523-.121-.523-.336,0-.187.215-.336.486-.336C15.251,36.565,15.494,36.715,15.494,36.929Zm-2.9-.42c-.065.187.121.4.4.458a.438.438,0,0,0,.579-.187c.056-.187-.121-.4-.4-.486A.479.479,0,0,0,12.589,36.509Zm4.128-.159c-.271.065-.458.243-.43.458.028.187.271.308.551.243s.458-.243.43-.43S16.988,36.322,16.717,36.35ZM22.862.563A22.4,22.4,0,0,0,0,23.35,23.414,23.414,0,0,0,15.83,45.689c1.2.215,1.616-.523,1.616-1.13,0-.579-.028-3.773-.028-5.734,0,0-6.537,1.4-7.91-2.783,0,0-1.065-2.718-2.6-3.418,0,0-2.139-1.466.149-1.438a4.93,4.93,0,0,1,3.6,2.41c2.045,3.6,5.473,2.568,6.808,1.952A5.191,5.191,0,0,1,18.968,32.4C13.747,31.821,8.48,31.064,8.48,22.08a7.078,7.078,0,0,1,2.2-5.5,8.824,8.824,0,0,1,.243-6.341c1.952-.607,6.444,2.522,6.444,2.522a22.063,22.063,0,0,1,11.73,0s4.492-3.138,6.444-2.522a8.82,8.82,0,0,1,.243,6.341c1.494,1.653,2.41,2.942,2.41,5.5,0,9.012-5.5,9.731-10.721,10.32a5.523,5.523,0,0,1,1.588,4.333c0,3.147-.028,7.042-.028,7.808,0,.607.43,1.345,1.616,1.13A23.2,23.2,0,0,0,46.323,23.35C46.323,10.4,35.816.563,22.862.563ZM9.078,32.773c-.121.093-.093.308.065.486.149.149.364.215.486.093.121-.093.093-.308-.065-.486C9.414,32.717,9.2,32.652,9.078,32.773Zm-1.009-.756c-.065.121.028.271.215.364a.278.278,0,0,0,.4-.065c.065-.121-.028-.271-.215-.364C8.284,31.9,8.134,31.924,8.069,32.017ZM11.1,35.342c-.149.121-.093.4.121.579.215.215.486.243.607.093.121-.121.065-.4-.121-.579C11.5,35.22,11.216,35.192,11.1,35.342ZM10.03,33.969c-.149.093-.149.336,0,.551s.4.308.523.215a.426.426,0,0,0,0-.579C10.423,33.941,10.18,33.847,10.03,33.969Z" transform="translate(0 -0.563)" fill="#fff"/>
</svg>
