<svg xmlns="http://www.w3.org/2000/svg" width="46.484" height="46.484" viewBox="0 0 46.484 46.484">
  <path id="in-icon" d="M23.242,46.484a23.133,23.133,0,0,1-12.995-3.969A23.311,23.311,0,0,1,1.826,32.289,23.211,23.211,0,0,1,3.969,10.247,23.311,23.311,0,0,1,14.2,1.826,23.211,23.211,0,0,1,36.237,3.969,23.311,23.311,0,0,1,44.658,14.2a23.21,23.21,0,0,1-2.143,22.042,23.309,23.309,0,0,1-10.226,8.421A23.1,23.1,0,0,1,23.242,46.484Zm5.274-23.293a2.579,2.579,0,0,1,2.67,1.691,9.662,9.662,0,0,1,.4,3.346v9.259h5.9V27.038c0-3.031-.4-5.018-1.3-6.442-1.1-1.754-3-2.607-5.78-2.607a6.237,6.237,0,0,0-5.588,3.071h-.083V18.466H19.075v19.02h5.9V28.068a6.915,6.915,0,0,1,.619-3.369,2.73,2.73,0,0,1,1.073-1.1A3.792,3.792,0,0,1,28.516,23.191ZM9.468,18.466v19.02h5.906V18.466ZM12.418,9a3.437,3.437,0,1,0,3.42,3.42A3.424,3.424,0,0,0,12.418,9Z" fill="#fff"/>
</svg>
