<svg xmlns="http://www.w3.org/2000/svg" xmlns:xlink="http://www.w3.org/1999/xlink" width="357" height="245.239" viewBox="0 0 357 245.239">
  <defs>
    <linearGradient id="linear-gradient" x1="0.236" y1="0.981" x2="0.582" y2="0.583" gradientUnits="objectBoundingBox">
      <stop offset="0" stop-color="#6a6e81"/>
      <stop offset="1" stop-color="#dee0ed"/>
    </linearGradient>
    <linearGradient id="linear-gradient-2" x1="0.799" y1="0.156" x2="0.606" y2="0.517" xlink:href="#linear-gradient"/>
    <radialGradient id="radial-gradient" cx="0.185" cy="0.377" r="0.679" gradientTransform="matrix(0.731, -0.682, 0.723, 0.774, -0.222, 0.211)" gradientUnits="objectBoundingBox">
      <stop offset="0" stop-color="#f9f9f9"/>
      <stop offset="0.22" stop-color="#f3f3f5"/>
      <stop offset="0.757" stop-color="#9498a8"/>
      <stop offset="1" stop-color="#6a6e81"/>
    </radialGradient>
    <filter id="Path_61" x="136.093" y="49.548" width="91.247" height="135.169" filterUnits="userSpaceOnUse">
      <feOffset dy="3" input="SourceAlpha"/>
      <feGaussianBlur stdDeviation="3" result="blur"/>
      <feFlood flood-opacity="0.161"/>
      <feComposite operator="in" in2="blur"/>
      <feComposite in="SourceGraphic"/>
    </filter>
    <filter id="SANNE_SIDELL" x="0" y="183.437" width="357" height="59" filterUnits="userSpaceOnUse">
      <feOffset dy="3" input="SourceAlpha"/>
      <feGaussianBlur stdDeviation="3" result="blur-2"/>
      <feFlood flood-opacity="0.169"/>
      <feComposite operator="in" in2="blur-2"/>
      <feComposite in="SourceGraphic"/>
    </filter>
  </defs>
  <g id="logo-sanne" transform="translate(-1547.757 -163.563)">
    <g id="Group_48" data-name="Group 48" transform="translate(1494.204 133.721)">
      <g id="Group_30" data-name="Group 30" transform="translate(136.534 29.843)">
        <g id="Group_27" data-name="Group 27" transform="translate(0)">
          <g id="Group_15" data-name="Group 15" transform="translate(0.847 0)">
            <path id="Path_22" data-name="Path 22" d="M161.136,8.023c-1.053-9.789-91.2-103.756-91.2-103.756L-18.4,5.3-18.9,6.833V8.12L3.839,35.536s-1.946-5.956-1.9-9.071.077-2.872.955-5.1C4.515,17.114,46.83-28.706,63.566-47.36c3.908-4.356,6.373-7.1,6.373-7.1l6.943,7.788,79.268,88.92,2.243,8.6a38.142,38.142,0,0,0,1.552-5.3C160.372,43.237,162.189,17.812,161.136,8.023Z" transform="translate(19.997 95.732)" fill="url(#linear-gradient)"/>
            <path id="Path_28" data-name="Path 28" d="M158.2-67.211a5.819,5.819,0,0,1-.808,2.585L68.7,34.3S-19.38-57.832-20.848-65.156s1.676-23.779,2.529-26.33,1.394-1.2,1.394-1.2-.077-5.4,2.44-2.151S68.7-7.266,68.7-7.266l65.944-73.868,1.775-3.141a14.852,14.852,0,0,0,.451-5.267,21.77,21.77,0,0,0-1.532-5.293l5.682,6.285s16.051,17.628,16.45,18.4A5.289,5.289,0,0,1,158.2-67.211Z" transform="translate(21.233 210.942)" fill="url(#linear-gradient-2)"/>
          </g>
          <path id="Path_55" data-name="Path 55" d="M67.376,6.773S-20.707-85.356-22.175-92.679-23.857-129-22.5-133.451a19.188,19.188,0,0,1,4.583-7.508s-2.3,5.023-.334,9.568,85.627,96.6,85.627,96.6Z" transform="translate(23.407 238.466)" fill="#dee0ed"/>
          <path id="Path_53" data-name="Path 53" d="M300.387,8.023c-1.053-9.789-91.2-103.756-91.2-103.756v41.274l6.943,7.788s75.348,82.533,79.15,89.026.674,10.372.674,10.372,3.566-3.686,3.994-6S301.44,17.812,300.387,8.023Z" transform="translate(-118.407 95.732)" fill="#dee0ed"/>
        </g>
      </g>
      <g id="Group_36" data-name="Group 36" transform="translate(183.606 85.391)">
        <path id="Path_62" data-name="Path 62" d="M-10407.555-3876.627s-11.449,12.083-12.709,24.795,2.77,26.746,17.152,35.911,32.7,6.005,40.375,0c.277-.216-.35-3.743,0-4.058,6.427-5.764,2.6-8.39,2.6-8.39l-2.6-18.592-12.867-13.423s-.723,13.211-7.186,14.87-12.422.819-18.666-8.236S-10407.555-3876.627-10407.555-3876.627Z" transform="translate(10420.48 3927.472)" fill="url(#radial-gradient)"/>
        <g transform="matrix(1, 0, 0, 1, -130.05, -55.55)" filter="url(#Path_61)">
          <path id="Path_61-2" data-name="Path 61" d="M-10368.7-3973.721s-18.479,12.616-15.418,24.617,42.5,8.9,50.24,43.12-19.823,42.6-29.844,46.141a63.969,63.969,0,0,1-17.236,3.237,33,33,0,0,1-3.859,0c.1,0,8.008-2.457,12.164-5.92,1.717-1.431,8.48-8.174,8.932-17.734s-1.943-14.805-8.932-19.252c-17.33-11.029-23.251-13.8-29.131-22.453s-5.5-18.851,2.768-31.79S-10368.7-3973.721-10368.7-3973.721Z" transform="translate(10550.86 4029.27)" fill="#dee0ed"/>
        </g>
      </g>
    </g>
    <g id="Group_109" data-name="Group 109" transform="translate(-21.148 -39.892)">
      <rect id="Rectangle_48" data-name="Rectangle 48" width="354.651" height="53.892" transform="translate(1570.077 386)" fill="#323442" opacity="0.68"/>
      <g transform="matrix(1, 0, 0, 1, 1568.91, 203.46)" filter="url(#SANNE_SIDELL)">
        <text id="SANNE_SIDELL-2" data-name="SANNE SIDELL" transform="translate(9 222.44)" fill="#dee0ed" font-size="35" font-family="Raleway-Bold, Raleway" font-weight="700" letter-spacing="0.24em"><tspan x="0" y="0">SANNE SIDELL</tspan></text>
      </g>
    </g>
  </g>
</svg>
